<?xml version="1.0" standalone="no"?>
<!DOCTYPE svg PUBLIC "-//W3C//DTD SVG 20010904//EN"
 "http://www.w3.org/TR/2001/REC-SVG-20010904/DTD/svg10.dtd">
<svg version="1.0" xmlns="http://www.w3.org/2000/svg"
 width="3000.000000pt" height="3000.000000pt" viewBox="0 0 3000.000000 3000.000000"
 preserveAspectRatio="xMidYMid meet">

<g transform="translate(0.000000,3000.000000) scale(0.100000,-0.100000)"
fill="#000000" stroke="none">
<path d="M13930 25344 c-165 -20 -221 -28 -328 -50 -785 -160 -1490 -678
-1944 -1428 -667 -1100 -678 -2554 -28 -3677 63 -108 201 -309 288 -419 103
-129 354 -379 482 -480 548 -434 1183 -650 1840 -627 448 16 867 132 1251 348
836 468 1425 1328 1608 2346 53 291 71 718 42 993 -102 1003 -571 1870 -1311
2429 -387 292 -822 475 -1302 547 -98 15 -519 27 -598 18z m564 -1183 c277
-56 541 -177 781 -359 87 -66 266 -244 345 -342 214 -268 367 -594 444 -945
55 -253 66 -604 27 -860 -75 -494 -280 -919 -605 -1254 -279 -287 -604 -468
-980 -547 -165 -34 -411 -43 -581 -20 -995 133 -1735 1059 -1735 2171 0 686
288 1334 773 1741 277 233 582 373 932 429 136 22 457 14 599 -14z"/>
<path d="M23581 23213 l-34 -4 6 -77 c3 -42 14 -240 24 -440 9 -199 19 -366
22 -371 4 -4 45 -6 94 -3 l87 5 0 297 c0 163 -3 365 -7 448 l-6 152 -76 -2
c-42 0 -91 -3 -110 -5z"/>
<path d="M18707 23075 c-212 -58 -350 -243 -376 -504 -12 -113 3 -311 29 -396
85 -276 305 -423 578 -385 211 29 362 170 424 397 27 101 29 335 3 458 -45
220 -175 373 -364 429 -66 19 -225 20 -294 1z m271 -194 c54 -27 117 -102 141
-166 34 -90 43 -175 39 -343 -5 -186 -23 -246 -95 -324 -55 -58 -114 -82 -203
-82 -154 0 -255 99 -295 292 -18 81 -20 309 -4 384 26 123 104 223 198 253 61
20 166 13 219 -14z"/>
<path d="M21888 22850 c-115 -20 -228 -100 -265 -188 -24 -57 -20 -141 8 -198
43 -87 129 -135 317 -175 165 -36 212 -66 212 -134 0 -72 -69 -118 -176 -118
-94 0 -146 27 -177 95 l-22 48 -103 0 -102 0 6 -27 c21 -96 58 -154 128 -203
209 -143 573 -71 640 127 46 133 -11 257 -143 317 -32 14 -117 39 -191 56 -73
16 -143 36 -156 45 -89 58 -57 165 58 196 89 24 181 -19 210 -97 l12 -34 98 0
c115 0 120 4 95 84 -49 153 -241 241 -449 206z"/>
<path d="M20965 22817 c-58 -20 -97 -42 -124 -71 -32 -34 -41 -33 -41 3 0 55
-2 56 -105 53 l-95 -3 0 -27 c0 -15 7 -309 17 -654 l17 -628 107 0 107 0 -6
222 -5 223 24 -18 c54 -40 115 -60 190 -65 175 -10 291 70 356 245 34 90 43
280 19 392 -46 218 -160 331 -340 338 -49 2 -97 -2 -121 -10z m159 -200 c115
-88 144 -378 51 -519 -50 -76 -170 -102 -262 -57 -78 38 -81 47 -89 290 l-7
215 34 38 c47 54 80 67 165 64 60 -3 77 -8 108 -31z"/>
<path d="M19871 22784 c-157 -42 -266 -159 -306 -326 -31 -134 -10 -317 51
-429 36 -66 121 -144 191 -177 53 -25 68 -27 183 -27 120 0 128 1 192 32 90
42 150 100 192 184 47 95 60 162 53 294 -7 154 -39 240 -121 331 -101 113
-277 161 -435 118z m229 -188 c73 -48 120 -164 120 -296 0 -181 -74 -298 -194
-308 -88 -7 -123 4 -175 56 -73 73 -104 207 -82 351 18 113 61 180 141 216 51
23 140 14 190 -19z"/>
<path d="M23653 22149 c-46 -14 -73 -53 -73 -106 0 -38 5 -50 35 -80 34 -34
38 -35 91 -31 68 6 103 35 111 95 6 44 -15 96 -45 112 -29 15 -85 20 -119 10z"/>
<path d="M23133 22140 c-68 -29 -82 -141 -24 -192 26 -23 40 -28 85 -28 85 0
136 57 122 135 -11 59 -44 88 -107 91 -30 2 -64 0 -76 -6z"/>
<path d="M22633 22126 c-85 -39 -82 -176 4 -213 106 -44 212 49 169 150 -26
63 -107 93 -173 63z"/>
<path d="M5970 21400 l-665 -408 -2 -108 c-1 -60 -10 -1230 -19 -2601 l-16
-2491 292 -387 292 -386 31 19 c18 10 522 319 1121 685 599 367 1094 667 1100
667 6 -1 180 -277 386 -615 354 -580 376 -613 395 -601 11 7 314 192 672 411
623 381 652 400 640 419 -81 125 -737 1206 -737 1213 0 6 131 90 290 187 160
98 290 180 290 183 0 8 -611 1006 -624 1019 -8 9 -86 -34 -305 -168 -228 -141
-295 -178 -302 -167 -4 8 -493 807 -1086 1776 -593 969 -1080 1762 -1083 1762
-3 0 -304 -184 -670 -409z m955 -3068 c300 -492 544 -897 540 -900 -14 -15
-1041 -639 -1044 -636 -3 3 -15 453 -27 1002 -22 952 -29 1440 -20 1431 2 -2
250 -406 551 -897z"/>
<path d="M23008 21292 c-2 -4 -948 -540 -2104 -1190 l-2101 -1183 -176 -412
c-97 -226 -173 -414 -169 -418 4 -4 484 -269 1067 -588 583 -320 1064 -586
1069 -591 5 -5 -122 -246 -314 -595 -177 -323 -318 -591 -313 -595 14 -13
1274 -702 1277 -698 1 1 145 264 320 583 175 319 321 583 325 587 5 6 240
-117 518 -272 l51 -29 272 495 c150 273 270 497 268 498 -1 1 -124 69 -273
150 -148 81 -274 151 -279 156 -4 4 409 768 919 1697 509 928 927 1692 928
1697 1 5 -257 151 -573 325 -316 174 -605 333 -642 353 -37 20 -68 34 -70 30z
m-1383 -2528 c-256 -467 -469 -852 -473 -856 -6 -6 -987 524 -1006 543 -3 2
376 234 841 514 858 517 1094 657 1100 651 2 -2 -206 -385 -462 -852z"/>
<path d="M16151 17693 c-16 -14 -79 -193 -251 -727 -127 -390 -230 -714 -230
-721 0 -7 9 -24 21 -39 23 -29 72 -36 103 -13 17 13 476 1408 476 1449 0 27
-44 68 -73 68 -14 0 -34 -8 -46 -17z"/>
<path d="M13822 17504 c-20 -8 -34 -22 -38 -39 -5 -19 35 -147 151 -488 200
-587 190 -562 221 -575 35 -17 47 -15 78 9 17 14 26 30 26 49 0 24 -326 1000
-344 1028 -13 22 -62 30 -94 16z"/>
<path d="M14810 17435 l-24 -25 51 -542 c48 -519 51 -543 73 -560 29 -24 75
-23 100 2 27 27 27 36 -25 587 -25 262 -45 485 -45 495 0 10 -11 30 -25 43
-32 33 -74 33 -105 0z"/>
<path d="M12745 17035 c-14 -13 -25 -35 -25 -49 0 -30 -31 10 502 -657 461
-578 462 -578 515 -544 38 25 50 62 32 94 -29 51 -927 1168 -944 1175 -31 12
-56 6 -80 -19z"/>
<path d="M17041 16833 c-17 -16 -186 -192 -376 -393 -321 -340 -345 -367 -345
-401 0 -45 25 -69 72 -69 34 0 54 20 407 391 328 347 371 396 371 424 0 39
-35 75 -73 75 -15 0 -39 -12 -56 -27z"/>
<path d="M11808 16225 c-34 -19 -46 -67 -24 -99 16 -25 1320 -726 1349 -726 9
0 28 11 43 23 33 29 36 83 6 108 -30 24 -1319 709 -1334 709 -7 -1 -25 -7 -40
-15z"/>
<path d="M17265 15674 c-352 -196 -649 -364 -659 -374 -43 -42 -11 -120 49
-120 23 0 209 98 681 360 697 386 684 378 662 442 -11 32 -35 48 -70 47 -13 0
-311 -160 -663 -355z"/>
<path d="M11787 15194 c-341 -61 -626 -329 -712 -666 l-23 -93 -683 -6 c-642
-5 -691 -7 -805 -27 -271 -48 -459 -109 -699 -227 -409 -200 -760 -518 -1000
-905 -74 -120 -176 -329 -219 -451 l-34 -94 -2373 -5 -2374 -5 -57 -22 c-87
-33 -140 -68 -200 -131 -95 -99 -138 -207 -138 -348 0 -202 120 -381 309 -461
l66 -28 2331 -3 2331 -2 17 -110 c40 -257 108 -475 225 -715 347 -710 992
-1195 1786 -1342 l140 -26 702 -4 701 -4 6 -32 c12 -60 103 -232 162 -306 116
-146 299 -264 484 -312 121 -32 329 -32 450 0 182 48 369 168 484 312 65 81
144 237 173 339 17 62 18 176 18 2505 l0 2440 -23 79 c-132 456 -579 734
-1045 650z m-1920 -2085 c68 -42 67 -36 65 -509 -4 -843 -13 -1202 -30 -1239
-17 -37 -60 -68 -109 -77 -48 -9 -114 26 -142 75 l-22 40 8 813 9 814 22 36
c41 66 132 88 199 47z m628 -9 c70 -43 67 1 58 -903 -8 -751 -10 -814 -26
-845 -52 -95 -191 -97 -249 -3 l-21 34 7 814 c6 773 7 817 25 851 40 78 129
100 206 52z"/>
<path d="M18027 15160 c-349 -59 -623 -305 -729 -652 -21 -70 -22 -91 -26
-567 l-3 -493 -472 6 c-1768 23 -1657 25 -1717 -39 -23 -24 -25 -35 -31 -171
-4 -80 -3 -161 1 -181 11 -46 55 -91 100 -102 19 -5 456 -12 970 -15 514 -4
983 -9 1043 -12 l107 -6 0 -905 0 -905 -302 6 c-167 3 -641 9 -1054 12 -699 6
-753 5 -787 -11 -66 -31 -75 -59 -79 -235 -3 -176 5 -205 72 -245 34 -19 56
-20 695 -27 363 -3 839 -7 1058 -7 l397 -1 0 -462 c0 -412 2 -473 19 -553 82
-397 418 -685 830 -711 353 -23 703 185 856 507 37 78 75 198 75 236 l0 22
668 4 c721 4 743 5 986 63 617 147 1161 538 1496 1074 70 112 181 339 222 456
l33 94 2315 0 c2536 0 2375 -3 2498 59 256 130 342 462 184 707 -69 106 -187
187 -310 213 -38 8 -704 11 -2321 11 l-2268 0 -7 67 c-19 184 -101 473 -191
673 -307 682 -927 1195 -1650 1365 -244 57 -258 58 -991 62 l-682 4 -6 30 c-3
17 -24 69 -46 116 -151 323 -469 525 -820 521 -47 0 -107 -4 -133 -8z m1418
-2604 c133 -45 241 -101 445 -231 277 -176 441 -245 586 -245 190 0 349 151
313 295 -31 122 85 222 195 170 45 -21 69 -55 84 -117 65 -264 -153 -559 -460
-622 -126 -26 -238 -17 -389 30 -117 36 -244 102 -459 236 -212 132 -297 177
-407 214 -147 50 -299 31 -406 -50 -47 -36 -87 -98 -87 -136 0 -35 -34 -87
-72 -110 -75 -45 -171 -10 -203 74 -14 37 -15 52 -5 100 29 142 149 290 290
359 123 60 205 78 345 74 106 -4 132 -8 230 -41z"/>
<path d="M15943 12438 c4 -90 10 -270 13 -401 4 -131 11 -240 15 -243 5 -3 36
-2 70 2 l61 7 -3 151 -4 151 77 3 76 3 83 -150 84 -151 78 0 78 0 -15 28 c-8
15 -50 90 -95 166 l-80 140 27 16 c42 26 90 86 101 127 24 86 2 189 -51 240
-69 64 -82 68 -312 71 l-209 3 6 -163z m398 15 c25 -24 33 -42 36 -80 11 -106
-50 -152 -198 -153 l-86 0 -6 127 c-3 70 -3 131 0 136 3 5 54 7 114 5 107 -3
109 -4 140 -35z"/>
<path d="M15334 12561 c-72 -34 -124 -91 -156 -170 -20 -49 -23 -73 -23 -206
0 -147 1 -151 31 -215 41 -87 83 -133 152 -167 50 -24 69 -28 147 -28 71 0
100 5 137 22 65 30 132 101 160 171 21 51 23 73 23 207 -1 134 -3 156 -24 210
-33 81 -106 158 -178 185 -84 31 -191 28 -269 -9z m227 -104 c34 -18 51 -36
74 -82 27 -53 30 -69 34 -174 5 -154 -9 -210 -62 -266 -33 -34 -51 -45 -88
-50 -102 -15 -183 43 -215 153 -24 81 -16 282 13 337 53 100 148 132 244 82z"/>
<path d="M14501 12553 l-44 -4 7 -272 c3 -150 9 -329 13 -399 l6 -128 69 0 70
0 -7 155 -8 155 62 2 c33 1 69 2 79 2 12 1 36 -32 79 -109 34 -60 73 -129 87
-153 l26 -43 67 7 c38 4 70 8 72 10 2 1 -39 76 -90 165 -71 123 -90 164 -79
167 8 3 36 26 62 52 57 59 75 123 58 210 -15 78 -48 123 -117 157 -56 27 -64
28 -213 29 -85 1 -175 -1 -199 -3z m340 -126 c52 -34 70 -135 35 -189 -26 -40
-71 -55 -172 -60 l-92 -4 -6 44 c-3 25 -6 84 -6 133 0 103 -6 99 125 95 66 -1
97 -7 116 -19z"/>
<path d="M13801 12533 l-54 -4 7 -102 c3 -56 9 -236 12 -399 l7 -298 68 0 69
0 0 155 0 155 59 0 c33 0 66 3 74 6 11 4 38 -37 102 -150 97 -174 85 -165 193
-148 l43 7 -94 162 -95 162 39 26 c59 39 90 93 96 167 9 116 -34 200 -127 242
-38 17 -67 20 -195 22 -82 1 -174 -1 -204 -3z m309 -116 c73 -25 107 -140 59
-201 -32 -41 -66 -53 -171 -59 l-98 -5 0 118 c0 65 -3 125 -6 133 -4 11 2 17
23 20 58 9 159 5 193 -6z"/>
<path d="M13318 12521 c-108 -3 -198 -8 -201 -11 -3 -4 18 -789 22 -797 2 -4
436 8 479 13 l42 5 0 55 0 54 -195 -7 -195 -6 0 120 0 121 166 7 c163 7 166 8
160 29 -3 11 -6 36 -6 55 l0 34 -162 -4 -163 -4 -3 113 -3 112 159 0 c88 0
174 3 191 6 31 7 32 8 29 58 l-3 51 -60 1 c-33 0 -149 -2 -257 -5z"/>
<path d="M13340 9117 c-106 -55 -1219 -714 -1232 -729 -38 -43 -3 -118 54
-118 11 0 301 165 645 366 641 376 654 385 638 434 -13 42 -67 66 -105 47z"/>
<path d="M16740 8970 c-29 -29 -30 -74 -2 -101 9 -9 306 -162 658 -339 622
-313 642 -322 670 -309 39 19 55 53 42 91 -9 26 -73 60 -659 354 -357 178
-658 324 -669 324 -11 0 -29 -9 -40 -20z"/>
<path d="M16195 8595 c-45 -44 -37 -59 149 -282 790 -945 758 -908 800 -908
47 0 82 38 73 77 -8 29 -908 1108 -940 1125 -33 19 -55 16 -82 -12z"/>
<path d="M13622 8363 c-11 -4 -614 -666 -685 -752 -22 -26 -27 -40 -22 -60 11
-43 35 -62 74 -59 33 3 62 32 383 388 308 340 348 388 348 417 0 54 -48 86
-98 66z"/>
<path d="M14239 8170 c-9 -5 -21 -22 -27 -37 -28 -70 -402 -1349 -402 -1374 0
-35 31 -69 64 -69 60 0 61 4 275 726 110 374 201 689 201 700 0 48 -67 80
-111 54z"/>
<path d="M14990 8065 l-24 -26 57 -492 c32 -271 62 -509 68 -529 16 -61 67
-76 115 -34 l28 23 -58 494 c-32 272 -62 511 -67 531 -16 61 -77 78 -119 33z"/>
<path d="M15746 7989 c-17 -13 -26 -30 -26 -48 0 -46 347 -973 371 -993 24
-20 37 -22 72 -9 38 15 48 58 27 117 -167 471 -336 912 -357 932 -30 27 -53
28 -87 1z"/>
<path d="M16901 6375 c-145 -41 -209 -135 -219 -322 l-5 -103 -78 0 -79 0 0
-65 0 -65 81 0 82 0 -5 -430 -4 -430 81 0 82 0 6 83 c4 45 7 238 7 430 l0 347
105 0 105 0 0 65 0 65 -106 0 -106 0 4 88 c5 101 23 143 79 180 30 20 44 23
110 20 l77 -3 6 65 c3 35 2 68 -2 72 -17 17 -166 18 -221 3z"/>
<path d="M21037 6273 c-4 -38 -7 -153 -7 -257 l0 -190 -27 26 c-16 15 -53 39
-83 55 -50 25 -65 28 -160 28 -131 0 -184 -21 -263 -103 -103 -109 -142 -238
-134 -442 3 -69 12 -146 20 -171 42 -128 121 -230 216 -276 50 -25 67 -28 156
-28 87 0 107 4 155 26 30 14 69 39 87 56 l31 29 7 -45 c4 -25 12 -49 18 -53
21 -13 137 -9 142 5 2 6 6 326 7 710 l3 697 -81 0 -81 0 -6 -67z m-117 -506
c25 -13 59 -42 77 -66 l33 -43 0 -233 0 -233 -45 -50 c-54 -60 -108 -84 -190
-85 -179 -2 -277 148 -262 401 7 118 27 187 70 244 73 96 203 123 317 65z"/>
<path d="M15580 6080 l0 -120 -95 0 -95 0 0 -65 0 -65 90 0 90 0 0 -338 c0
-274 3 -348 15 -390 31 -102 101 -151 216 -152 37 0 81 3 98 6 l31 7 0 69 0
69 -44 -6 c-60 -9 -112 9 -131 46 -13 24 -15 81 -13 356 l3 328 93 3 92 3 0
64 0 65 -90 0 -90 0 0 120 0 120 -85 0 -85 0 0 -120z"/>
<path d="M9147 6020 c-52 -13 -110 -44 -152 -81 l-35 -31 0 28 c0 70 -6 74
-85 74 l-72 0 -6 -257 c-4 -141 -7 -449 -7 -684 0 -487 -11 -439 101 -439 l69
0 0 242 0 242 28 -27 c15 -14 54 -38 87 -54 54 -25 70 -28 170 -28 100 0 115
2 160 27 100 52 174 156 210 293 21 81 22 288 1 378 -33 139 -111 247 -214
295 -60 27 -189 38 -255 22z m182 -173 c50 -33 96 -102 118 -176 22 -77 14
-286 -14 -357 -44 -113 -126 -174 -232 -174 -89 0 -130 16 -188 75 l-53 52 1
169 c0 93 4 206 7 251 7 76 10 85 42 119 56 58 101 75 196 72 69 -3 87 -7 123
-31z"/>
<path d="M10110 6006 c-138 -40 -243 -137 -263 -243 l-6 -33 89 0 c85 0 90 1
90 22 0 32 44 83 93 107 48 24 164 29 214 10 70 -26 112 -100 113 -195 l0 -62
-162 -4 c-134 -4 -175 -9 -229 -27 -93 -32 -157 -83 -194 -156 -26 -51 -30
-69 -30 -139 0 -71 4 -88 30 -134 35 -64 71 -96 145 -131 47 -22 69 -26 150
-26 109 0 165 17 236 71 24 19 46 34 48 34 3 0 7 -15 11 -32 14 -72 8 -68 106
-68 49 0 89 4 89 9 0 5 -5 22 -12 38 -8 19 -14 138 -18 383 -5 343 -6 357 -28
405 -31 68 -83 118 -156 151 -52 23 -77 28 -166 30 -66 2 -122 -1 -150 -10z
m330 -617 c0 -84 -3 -107 -20 -134 -41 -66 -143 -117 -236 -117 -74 -1 -125
22 -162 70 -37 48 -39 141 -4 190 48 66 124 90 300 91 l122 1 0 -101z"/>
<path d="M11093 5990 c-62 -25 -144 -96 -178 -154 -59 -101 -69 -148 -69 -331
-1 -153 1 -177 22 -238 28 -80 87 -171 137 -210 70 -56 121 -72 225 -71 82 0
103 3 155 27 33 16 72 40 88 54 l27 27 0 -75 c-1 -127 -44 -204 -137 -246 -47
-22 -65 -25 -136 -21 -96 4 -150 26 -216 89 -23 23 -46 37 -50 33 -5 -5 -25
-28 -46 -52 l-38 -43 34 -36 c49 -50 98 -79 186 -109 70 -23 89 -26 184 -22
91 4 114 8 170 35 83 39 143 99 182 181 l31 67 7 230 c4 127 8 373 8 548 l1
317 -80 0 -80 0 0 -51 0 -51 -41 36 c-73 62 -122 79 -234 83 -82 3 -109 -1
-152 -17z m251 -131 c56 -16 110 -54 142 -102 l27 -41 -7 -225 c-7 -225 -7
-226 -34 -266 -41 -59 -117 -95 -201 -95 -123 1 -204 65 -243 193 -17 58 -20
86 -16 190 7 152 25 212 87 279 67 71 148 94 245 67z"/>
<path d="M12258 6000 c-122 -21 -250 -119 -307 -235 -47 -96 -64 -188 -58
-325 7 -168 44 -258 146 -353 96 -90 239 -130 382 -108 107 17 178 53 245 122
l56 60 -51 40 -51 41 -46 -41 c-72 -63 -125 -84 -214 -85 -66 -1 -85 3 -136
29 -93 48 -164 164 -164 270 l0 28 335 -7 335 -7 0 98 c-1 272 -117 438 -331
472 -71 12 -74 12 -141 1z m146 -151 c81 -22 156 -134 156 -231 l0 -38 -246 0
-247 0 7 43 c15 98 87 194 167 223 43 16 113 17 163 3z"/>
<path d="M13716 5965 c-33 -13 -78 -43 -101 -65 l-42 -41 -7 32 c-3 17 -6 44
-6 60 l0 29 -80 0 -80 0 -2 -415 c-1 -228 -3 -452 -3 -497 l0 -83 81 -3 81 -3
6 107 c4 59 7 221 7 360 l0 252 33 44 c18 23 55 56 82 73 43 27 57 30 129 30
67 0 87 -4 117 -23 73 -44 74 -51 77 -469 l3 -373 85 0 85 0 -3 393 c-3 379
-4 394 -25 447 -47 116 -140 170 -291 170 -69 0 -99 -6 -146 -25z"/>
<path d="M14743 5975 c-202 -44 -332 -217 -349 -465 -13 -175 41 -334 147
-435 70 -67 140 -101 234 -114 146 -21 274 18 374 114 107 102 159 258 148
440 -17 256 -156 430 -373 465 -75 12 -104 12 -181 -5z m212 -159 c127 -59
194 -224 168 -419 -26 -192 -126 -299 -278 -299 -108 0 -190 53 -240 157 -72
147 -48 387 49 502 67 80 201 106 301 59z"/>
<path d="M17577 5959 c-212 -31 -356 -214 -373 -469 -11 -174 36 -319 138
-426 205 -214 577 -157 707 109 85 172 77 440 -17 587 -100 155 -266 228 -455
199z m211 -176 c104 -64 161 -204 149 -367 -12 -158 -61 -256 -157 -310 -47
-26 -65 -30 -125 -30 -151 0 -247 98 -275 283 -21 131 10 280 75 366 53 68
119 96 218 91 53 -3 77 -9 115 -33z"/>
<path d="M19706 5931 c-32 -11 -85 -40 -117 -65 l-59 -46 0 55 0 55 -85 0 -85
0 0 -495 0 -495 85 0 85 0 0 354 0 354 33 43 c18 24 52 57 76 74 40 28 48 30
136 30 101 0 125 -10 169 -69 20 -26 21 -42 24 -412 l3 -384 84 0 84 0 3 338
c2 185 0 367 -4 403 -18 177 -114 267 -292 275 -61 3 -95 0 -140 -15z"/>
<path d="M18322 5553 c3 -273 8 -399 16 -425 24 -70 75 -131 137 -163 51 -26
71 -30 157 -33 116 -4 188 14 254 64 23 18 45 30 48 27 3 -4 6 -24 6 -45 l0
-38 78 0 79 0 5 493 c4 270 4 494 1 497 -2 3 -40 7 -82 8 l-78 4 -6 -159 c-4
-87 -7 -252 -7 -367 0 -199 -1 -211 -22 -241 -43 -63 -135 -105 -231 -105 -71
0 -127 30 -158 83 l-24 42 -3 373 -3 372 -85 0 -85 0 3 -387z"/>
</g>
</svg>
