<svg width="229" height="172" viewBox="0 0 229 172" fill="none" xmlns="http://www.w3.org/2000/svg">
<path d="M194.992 50.9085L195.494 52.1667H196.849H223.627C225.816 52.1667 227.428 54.2287 226.897 56.3607C226.897 56.3609 226.897 56.3611 226.897 56.3613L224.214 67.1107L224.213 67.1124C223.84 68.6136 222.493 69.6667 220.948 69.6667H211.971H206.65L210.654 73.1716C216.255 78.0748 219.842 85.1768 219.842 93.1667V114.667C219.842 121.367 217.29 127.426 213.18 132.132L212.686 132.697V133.448V157.667C212.686 164.48 207.17 170 200.374 170H186.061C179.265 170 173.749 164.48 173.749 157.667V143.333V141.333H171.749H57.2484H55.2484V143.333V157.667C55.2484 164.48 49.7318 170 42.9359 170H28.6234C21.8275 170 16.3109 164.48 16.3109 157.667V133.448V132.698L15.8178 132.133C11.7066 127.422 9.15463 121.363 9.15463 114.667V93.1667C9.15463 85.1769 12.7415 78.0751 18.347 73.1721L22.3546 69.6667H17.0303H8.05364C6.50868 69.6667 5.16168 68.6136 4.78834 67.1124L4.78791 67.1107L2.10431 56.3607L2.10386 56.3589C1.56999 54.2287 3.18057 52.1667 5.37004 52.1667H32.1434H33.4982L34.0007 50.9085L41.4432 32.2753C41.4432 32.2752 41.4432 32.2752 41.4432 32.2752C48.7929 13.8764 66.3155 2 86.0971 2H142.9C162.686 2 180.204 13.8764 187.549 32.2749L187.549 32.2752L194.992 50.9085ZM64.3052 41.4383L64.3051 41.4385L55.3911 63.7582L54.2961 66.5H57.2484H171.749H174.701L173.606 63.7582L164.692 41.4385L164.692 41.4383C161.128 32.5188 152.499 26.6667 142.9 26.6667H86.0971C76.4978 26.6667 67.8688 32.5188 64.3052 41.4383ZM26.6234 100.289C26.6234 105.031 28.2156 109.137 31.1463 112.063C34.0768 114.989 38.1887 116.577 42.9359 116.577C43.8907 116.577 44.9349 116.597 46.032 116.618C49.6156 116.687 53.7652 116.767 57.2189 116.193C59.5029 115.813 61.7748 115.111 63.5059 113.729C65.3396 112.264 66.4047 110.163 66.4047 107.433C66.4047 104.822 65.4376 102.068 64.0055 99.4946C62.5596 96.8964 60.5606 94.3393 58.3037 92.0861C56.0467 89.8329 53.4854 87.8375 50.8833 86.3943C48.3057 84.9647 45.5484 84 42.9359 84C38.1887 84 34.0768 85.5884 31.1463 88.5139C28.2156 91.4398 26.6234 95.5465 26.6234 100.289ZM162.592 107.433C162.592 110.163 163.657 112.264 165.491 113.729C167.222 115.111 169.494 115.813 171.778 116.193C175.232 116.767 179.381 116.687 182.965 116.618C184.062 116.597 185.106 116.577 186.061 116.577C190.808 116.577 194.92 114.989 197.851 112.063C200.781 109.137 202.374 105.031 202.374 100.289C202.374 95.5465 200.781 91.4398 197.851 88.5139C194.92 85.5884 190.808 84 186.061 84C183.449 84 180.691 84.9647 178.114 86.3943C175.512 87.8375 172.95 89.8329 170.693 92.0861C168.436 94.3393 166.437 96.8964 164.992 99.4946C163.559 102.068 162.592 104.822 162.592 107.433Z" fill="white" stroke="#F87171" stroke-width="4"/>
</svg>
